<svg width="200" height="80" viewBox="0 0 200 80" fill="none" xmlns="http://www.w3.org/2000/svg">
<g clip-path="url(#clip0_1151_758)">
<path fill-rule="evenodd" clip-rule="evenodd" d="M168.635 11.3304C167.766 9.11068 166.461 7.09 164.796 5.3893C163.146 3.71187 161.163 2.3943 158.846 1.43658C156.53 0.478859 153.958 0 151.13 0C148.287 0 145.703 0.474589 143.379 1.42377C141.054 2.37295 139.064 3.68653 137.407 5.36454C135.736 7.06213 134.425 9.08341 133.555 11.3056C132.644 13.5883 132.189 16.0557 132.189 18.708C132.189 21.3397 132.645 23.7958 133.555 26.0762C134.427 28.2986 135.737 30.3209 137.407 32.0215C139.064 33.7058 141.059 35.0217 143.391 35.9691C145.723 36.9166 148.301 37.3906 151.126 37.3912C153.953 37.3912 156.525 36.9172 158.841 35.9691C161.157 35.0211 163.141 33.7052 164.791 32.0215C166.452 30.3209 167.757 28.3035 168.63 26.0882C169.543 23.8163 170 21.3551 170 18.7046C170 16.0723 169.545 13.6142 168.635 11.3304ZM160.65 23.6198C160.188 25.061 159.521 26.2852 158.651 27.2924C157.776 28.3024 156.679 29.0922 155.445 29.5985C154.178 30.1297 152.74 30.3956 151.131 30.3962C149.488 30.3962 148.033 30.1303 146.768 29.5985C145.532 29.0902 144.431 28.3009 143.551 27.2924C142.673 26.2863 142.003 25.0621 141.539 23.6198C141.076 22.1776 140.844 20.5391 140.845 18.7046C140.845 16.8871 141.077 15.2538 141.54 13.8046C142.004 12.3555 142.674 11.1276 143.551 10.121C144.436 9.10818 145.542 8.31384 146.781 7.79954C148.056 7.25919 149.507 6.98901 151.132 6.98901C152.741 6.98901 154.179 7.25919 155.446 7.79954C156.679 8.31452 157.776 9.10905 158.652 10.121C159.522 11.1282 160.188 12.3561 160.651 13.8046C161.113 15.2532 161.345 16.8865 161.345 18.7046C161.346 20.5408 161.114 22.1793 160.65 23.6198ZM9.3364 35.1501C9.15733 35.6255 8.83235 36.0525 8.36145 36.4312C7.88998 36.8098 7.3049 36.9992 6.6062 36.9992H0L14.0896 0.392027H22.7188L36.805 37.0017H30.254C29.5225 37.0023 28.9332 36.8295 28.4861 36.4833C28.038 36.136 27.6891 35.6761 27.4746 35.1501L25.33 28.7333H11.481L9.3364 35.1501ZM17.5755 10.7598C17.2995 11.6344 17.0394 12.3908 16.7952 13.0291L13.43 23.0134H23.375L20.0371 12.9822C19.7889 12.3433 19.5197 11.5943 19.2295 10.7351C18.9394 9.87584 18.6561 8.93947 18.3795 7.92595C18.1194 8.94061 17.8514 9.88523 17.5755 10.7598ZM69.445 36.9992H61.8162C60.4019 36.9997 59.3855 36.4588 58.7673 35.3764L52.7 24.7336C52.424 24.2752 52.1076 23.9435 51.7506 23.7386C51.3936 23.5336 50.898 23.4311 50.2639 23.4311H48.0939V36.9992H39.6602V0.392027H51.595C54.2464 0.392597 56.5055 0.666759 58.3721 1.21452C60.2375 1.76227 61.7599 2.51842 62.9391 3.48298C64.1183 4.44753 64.9777 5.59258 65.5172 6.91812C66.0653 8.28991 66.3399 9.75653 66.3255 11.2347C66.333 12.3755 66.1688 13.5109 65.8384 14.6024C65.5175 15.6504 65.0295 16.6392 64.3934 17.5302C63.7346 18.447 62.9394 19.2564 62.0356 19.9302C61.0605 20.6561 59.9845 21.2339 58.8421 21.6452C59.4137 21.9251 59.9431 22.2848 60.4146 22.7137C60.9115 23.1693 61.3495 23.6858 61.7185 24.251L69.445 36.9992ZM56.4188 15.9476C56.9259 15.4319 57.3093 14.8068 57.5399 14.1198C57.7804 13.3952 57.8999 12.6356 57.8935 11.8718C57.8963 10.2707 57.3773 9.01634 56.3363 8.10873C55.2953 7.20111 53.6866 6.74731 51.51 6.74731H48.0939V17.5942H51.51C52.6598 17.5925 53.6378 17.4485 54.4442 17.1621C55.2506 16.8757 55.9088 16.4708 56.4188 15.9476ZM79.2225 36.9983H87.6579V7.11542H97.8953V0.392027H68.9851V7.11542H79.2225V36.9983ZM121.24 35.3764L115.175 24.7336C114.902 24.2749 114.584 23.9427 114.227 23.7386C113.869 23.5336 113.373 23.4311 112.74 23.4311H110.571V36.9992H102.136V0.392027H114.07C116.723 0.392597 118.982 0.666475 120.849 1.21366C122.715 1.76199 124.238 2.51842 125.416 3.48298C126.594 4.44753 127.453 5.59258 127.994 6.91812C128.541 8.29009 128.815 9.7567 128.8 11.2347C128.807 12.3755 128.643 13.5108 128.313 14.6024C127.992 15.6504 127.504 16.6392 126.868 17.5302C126.209 18.4468 125.413 19.2562 124.51 19.9302C123.535 20.6561 122.459 21.2339 121.316 21.6452C121.888 21.9251 122.417 22.2849 122.888 22.7137C123.385 23.1691 123.824 23.6856 124.193 24.251L131.92 36.9992H124.29C122.875 36.9992 121.859 36.4582 121.24 35.3764ZM110.571 6.74731V17.5942H113.985C115.136 17.5925 116.115 17.4485 116.922 17.1621C117.728 16.8757 118.386 16.4708 118.896 15.9476C119.403 15.4316 119.786 14.8066 120.017 14.1198C120.258 13.3963 120.377 12.6379 120.371 11.8753C120.371 10.2718 119.851 9.01634 118.81 8.10873C117.77 7.20111 116.162 6.74731 113.985 6.74731H110.571ZM0.26265 43.0009H8.6972V72.8846H22.1765V79.6071H0.26265V43.0009ZM48.0896 64.7613C48.0896 66.0567 47.927 67.2092 47.6017 68.2187C47.3096 69.1679 46.8284 70.0476 46.1873 70.804C45.5713 71.5168 44.7999 72.0771 43.9331 72.4413C43.0474 72.8188 42.0356 73.0073 40.8978 73.0067C39.7599 73.0062 38.7484 72.8177 37.8633 72.4413C36.9938 72.0756 36.2215 71.5105 35.6082 70.7912C34.9685 70.0297 34.4878 69.1467 34.1947 68.1948C33.8688 67.1858 33.7062 66.0328 33.7068 64.7357V43.0009H25.2731V64.6896C25.2731 66.9307 25.6303 68.9877 26.3449 70.8604C27.0242 72.6773 28.0794 74.3287 29.4406 75.7057C30.7898 77.0637 32.4272 78.1187 34.3528 78.8709C36.2783 79.6231 38.46 79.9994 40.8978 80C43.3033 80 45.4727 79.6236 47.4062 78.8709C49.3397 78.1182 50.981 77.0631 52.3303 75.7057C53.6929 74.3273 54.7519 72.6765 55.4387 70.8604C56.1629 68.9877 56.525 66.9307 56.525 64.6896V43.0009H48.0896V64.7613ZM136.007 56.6936H113.243V43.0009H145.349L136.007 56.6936ZM91.1718 43.0008H85.9452C85.6117 42.9902 85.2821 43.0752 84.9949 43.246C84.7348 43.41 84.4911 43.6799 84.2639 44.0556L77.9263 55.023C77.787 55.223 77.6607 55.4319 77.548 55.6482C77.4426 55.8513 77.3489 56.0603 77.2675 56.2743L70.0281 43.9327C69.8326 43.591 69.6059 43.3499 69.3481 43.2092C69.0872 43.07 68.6817 43.0008 68.1292 43.0008H59.6921L70.9546 60.789L59.2535 79.6071H67.127C67.6308 79.6071 68.0414 79.4648 68.3587 79.1801C68.6646 78.9056 68.9384 78.597 69.1747 78.2602L75.9747 66.3884C76.1569 66.0842 76.3046 65.7605 76.415 65.4233L83.7037 78.2551C83.9047 78.6219 84.1784 78.9434 84.5079 79.1997C84.8478 79.4696 85.2949 79.6046 85.8491 79.6046H103.861V65.2208H90.1527V56.6945H103.861V43.0008H91.1718ZM120.374 79.6071H113.243V65.2208H130.189L120.374 79.6071Z" fill="url(#paint0_linear_1151_758)"/>
</g>
<defs>
<linearGradient id="paint0_linear_1151_758" x1="170" y1="8.8986e-06" x2="-3.71238" y2="70.9049" gradientUnits="userSpaceOnUse">
<stop stop-color="#D61D4D"/>
<stop offset="1" stop-color="#8A0427"/>
</linearGradient>
<clipPath id="clip0_1151_758">
<rect width="170" height="80" fill="white"/>
</clipPath>
</defs>
</svg>
